<svg width="20" height="20" viewBox="0 0 20 20" fill="none" xmlns="http://www.w3.org/2000/svg">
<g id="mdi:twitter">
<path id="Vector" d="M18.7167 4.99998C18.075 5.29165 17.3833 5.48331 16.6667 5.57498C17.4 5.13331 17.9667 4.43331 18.2333 3.59165C17.5417 4.00831 16.775 4.29998 15.9667 4.46665C15.3083 3.74998 14.3833 3.33331 13.3333 3.33331C11.375 3.33331 9.77499 4.93331 9.77499 6.90831C9.77499 7.19165 9.80833 7.46665 9.86666 7.72498C6.89999 7.57498 4.25833 6.14998 2.49999 3.99165C2.19166 4.51665 2.01666 5.13331 2.01666 5.78331C2.01666 7.02498 2.64166 8.12498 3.60833 8.74998C3.01666 8.74998 2.46666 8.58331 1.98333 8.33331V8.35831C1.98333 10.0916 3.21666 11.5416 4.84999 11.8666C4.3256 12.0102 3.77507 12.0301 3.24166 11.925C3.468 12.6354 3.91127 13.257 4.50917 13.7024C5.10707 14.1479 5.82953 14.3947 6.57499 14.4083C5.31135 15.4087 3.74499 15.9494 2.13333 15.9416C1.84999 15.9416 1.56666 15.925 1.28333 15.8916C2.86666 16.9083 4.74999 17.5 6.76666 17.5C13.3333 17.5 16.9417 12.05 16.9417 7.32498C16.9417 7.16665 16.9417 7.01665 16.9333 6.85831C17.6333 6.35831 18.2333 5.72498 18.7167 4.99998Z" fill="#103410"/>
</g>
</svg>
